<svg xmlns="http://www.w3.org/2000/svg" version="1.1" viewBox="0 0 1920 1080">
  <defs>
    <style>
      .cls-1 {
        fill: none;
        stroke: #000;
        stroke-miterlimit: 10;
        stroke-width: 31.67px;
      }
    </style>
  </defs>
  <!-- Generator: Adobe Illustrator 28.7.1, SVG Export Plug-In . SVG Version: 1.2.0 Build 142)  -->
  <g>
    <g id="Layer_1">
      <g>
        <path d="M769.31,454.19v-51.55l120.85-43.66v29.58l-116.34,39.72,116.34,40v29.58l-120.85-43.66Z"/>
        <path d="M983.39,304.9h35.21l-81.97,241.69h-35.21l81.97-241.69Z"/>
        <path d="M1029.87,468.28l116.34-40-116.34-39.72v-29.58l120.85,43.66v51.55l-120.85,43.66v-29.58Z"/>
      </g>
      <rect class="cls-1" x="623.55" y="123.3" width="672.93" height="503.15"/>
      <rect class="cls-1" x="623.55" y="225.04" width="672.93" height="401.41"/>
      <g>
        <rect class="cls-1" x="1464.3" y="344.48" width="217.37" height="162.53"/>
        <line class="cls-1" x1="1464.3" y1="425.74" x2="1296.48" y2="425.74"/>
      </g>
      <g>
        <rect class="cls-1" x="238.36" y="344.48" width="217.37" height="162.53" transform="translate(694.08 851.48) rotate(180)"/>
        <line class="cls-1" x1="455.73" y1="425.74" x2="623.55" y2="425.74"/>
      </g>
      <rect class="cls-1" x="851.33" y="794.27" width="217.37" height="162.53" transform="translate(1920.03 1751.06) rotate(180)"/>
      <line class="cls-1" x1="960.01" y1="794.27" x2="960.01" y2="626.45"/>
    </g>
  </g>
</svg>