<svg class="svg-icon" style="width: 1em;height: 1em;vertical-align: middle;fill: currentColor;overflow: hidden;" viewBox="0 0 1024 1024" version="1.1" xmlns="http://www.w3.org/2000/svg">
    <path d="M810.666667 170.666667a42.666667 42.666667 0 0 1 42.666666 42.666666v597.333334a42.666667 42.666667 0 0 1-42.666666 42.666666H213.333333a42.666667 42.666667 0 0 1-42.666666-42.666666V213.333333a42.666667 42.666667 0 0 1 42.666666-42.666666h597.333334z m0 42.666666H213.333333v597.333334h597.333334V213.333333z m-203.093334 364.032l109.184 109.226667 0.042667-76.458667a21.333333 21.333333 0 1 1 42.666667 0v128a21.333333 21.333333 0 0 1-21.333334 21.333334h-128a21.333333 21.333333 0 1 1 0-42.666667h76.501334l-109.226667-109.226667a21.333333 21.333333 0 0 1 30.122667-30.208zM413.866667 264.533333a21.333333 21.333333 0 0 1 0 42.666667H337.365333l109.226667 109.226667a21.333333 21.333333 0 0 1-30.122667 30.208L307.2 337.365333V413.866667a21.333333 21.333333 0 0 1-42.666667 0v-128a21.333333 21.333333 0 0 1 21.333334-21.333334h128z" fill="#ffffff" />
</svg>