<?xml version="1.0" standalone="no"?>
<!DOCTYPE svg PUBLIC "-//W3C//DTD SVG 20010904//EN"
 "http://www.w3.org/TR/2001/REC-SVG-20010904/DTD/svg10.dtd">
<svg version="1.0" xmlns="http://www.w3.org/2000/svg"
 width="1920.000000pt" height="1920.000000pt" viewBox="0 0 1920.000000 1920.000000"
 preserveAspectRatio="xMidYMid meet">
<metadata>
Created by potrace 1.14, written by Peter Selinger 2001-2017
</metadata>
<g transform="translate(0.000000,1920.000000) scale(0.100000,-0.100000)"
fill="#000000" stroke="none">
<path d="M6077 13915 c-1 -5 -2 -686 -2 -1512 l1 -1503 -680 0 -681 0 0 405
c1 223 -2 405 -5 406 -15 3 -2457 4 -2470 1 -13 -3 -15 -117 -14 -965 1 -529
2 -965 3 -969 0 -5 560 -8 1244 -8 l1243 0 -1 405 c0 223 2 405 5 406 19 4
1350 3 1352 -1 0 -3 2 -452 3 -998 1 -708 4 -995 12 -1000 6 -4 763 -7 1682
-6 1515 0 1671 -1 1672 -15 4 -135 -1 -1334 -6 -1339 -3 -4 -248 -7 -543 -7
l-537 0 0 -970 0 -970 1245 -1 1245 0 1 968 c0 532 -3 969 -6 969 -3 1 -244 2
-537 3 -292 1 -534 4 -538 8 -5 5 -9 944 -5 1309 l0 46 1664 -1 c916 -1 1673
1 1683 4 17 5 18 49 18 1005 l0 999 673 1 c371 0 677 -2 681 -5 4 -3 6 -185 6
-405 l0 -400 1245 0 1245 0 0 967 c0 641 -3 969 -10 971 -9 2 -2462 1 -2475
-2 -3 -1 -5 -183 -5 -406 l0 -405 -680 0 -681 0 0 1513 0 1512 -3522 0 c-2434
1 -3522 -2 -3525 -10z m6728 -652 l0 -348 -3206 -3 -3206 -2 0 350 0 350 3207
0 3206 0 -1 -347z m1 -2518 c0 -1015 -2 -1846 -5 -1846 -13 -4 -6387 -5 -6396
-2 -8 2 -10 577 -9 1841 0 1010 2 1840 2 1845 1 4 1443 7 3205 7 l3203 0 0
-1845z m-8409 -2 l2 -653 -929 0 -928 0 0 653 0 653 926 0 927 -1 2 -652z
m12259 0 l2 -653 -928 0 -928 0 0 647 c0 356 1 650 3 654 2 3 419 5 927 5
l923 -1 1 -652z m-6126 -4498 l0 -655 -930 0 -930 0 0 655 0 655 930 0 930 0
0 -655z"/>
<path d="M9812 11888 c-12 -35 -54 -162 -96 -283 -41 -121 -126 -373 -190
-560 -63 -187 -187 -554 -276 -815 -224 -661 -230 -678 -230 -688 0 -5 78 -8
173 -8 l174 0 61 181 c33 99 131 387 217 640 86 253 171 505 190 560 117 348
345 1017 350 1025 4 6 -60 10 -173 10 l-180 0 -20 -62z"/>
<path d="M8755 11359 c-142 -53 -234 -87 -395 -143 -58 -21 -114 -41 -125 -46
-11 -5 -85 -32 -165 -60 -80 -29 -154 -56 -165 -60 -11 -5 -63 -24 -115 -43
l-95 -34 0 -258 0 -257 310 -112 c171 -62 411 -149 535 -194 124 -45 255 -92
292 -106 l67 -24 3 107 c2 58 1 125 -2 149 l-5 43 -205 70 c-113 38 -284 97
-380 130 -96 33 -222 76 -280 95 -58 19 -114 39 -125 44 -11 4 -51 19 -90 33
-42 15 -64 27 -55 31 18 7 613 210 917 313 l222 75 3 92 c4 113 -1 206 -10
205 -4 -1 -65 -23 -137 -50z"/>
<path d="M10299 11371 c0 -23 0 -79 0 -126 0 -47 0 -96 0 -108 1 -21 12 -27
79 -50 42 -14 223 -76 402 -137 179 -61 402 -137 497 -168 95 -31 172 -60 173
-64 0 -3 -64 -28 -142 -54 -79 -25 -147 -49 -153 -53 -5 -3 -14 -6 -20 -7 -5
-1 -104 -35 -220 -75 -115 -40 -300 -103 -409 -140 -109 -38 -201 -71 -203
-73 -4 -4 -6 -97 -4 -243 l1 -51 83 29 c45 17 143 52 217 79 217 78 606 219
725 262 61 22 126 45 146 52 l37 11 -2 260 -1 260 -190 68 c-104 37 -199 72
-210 77 -11 4 -74 27 -140 50 -66 23 -129 45 -140 50 -11 5 -85 32 -165 60
-128 46 -292 106 -342 125 -15 6 -18 1 -19 -34z"/>
</g>
</svg>
